<svg xmlns="http://www.w3.org/2000/svg" width="1200.503" height="451.05" viewBox="0 0 1200.503 451.05">
  <g id="Group_2" data-name="Group 2" transform="translate(139 -94.475)">
    <g id="Group_1" data-name="Group 1">
      <g id="Group_31" data-name="Group 31" transform="translate(-4658 764.355)">
        <g id="Group_8" data-name="Group 8" transform="translate(4544.356 -220.355) rotate(-90)">
          <path id="Path_28" data-name="Path 28" d="M10.238,8.855a7.829,7.829,0,0,0-.179-1.19A9.623,9.623,0,0,0,5.275,1.47,12.555,12.555,0,0,0,0,0L.067,8.837Z" transform="translate(0.105 21.144) rotate(-90)" fill="none" stroke="#1a1818" stroke-miterlimit="10" stroke-width="1"/>
          <g id="Group_7" data-name="Group 7" transform="translate(8.812) rotate(90)">
            <path id="Path_2" data-name="Path 2" d="M10.8,0a7.378,7.378,0,0,1-.189,1.185A9.618,9.618,0,0,1,5.564,7.349,13.863,13.863,0,0,1,0,8.812L.071.019Z" fill="none" stroke="#1a1818" stroke-miterlimit="10" stroke-width="1"/>
          </g>
        </g>
        <path id="Path_41" data-name="Path 41" d="M4530.67-206.1V-636.667H5660.35v54.645H5719v376.728Z" transform="translate(0 -23.333)" fill="none" stroke="#000" stroke-width="1"/>
        <path id="Path_42" data-name="Path 42" d="M5663.33-601.355,4531.34-600" transform="translate(-1.333 -4)" fill="none" stroke="#000" stroke-width="1"/>
        <g id="Group_24" data-name="Group 24" transform="translate(4565.5 -669.355) rotate(90)">
          <path id="Path_28-2" data-name="Path 28" d="M10.238,8.855a7.829,7.829,0,0,0-.179-1.19A9.623,9.623,0,0,0,5.275,1.47,12.555,12.555,0,0,0,0,0L.067,8.837Z" transform="translate(0.105 21.144) rotate(-90)" fill="none" stroke="#1a1818" stroke-miterlimit="10" stroke-width="1"/>
          <g id="Group_7-2" data-name="Group 7" transform="translate(8.812) rotate(90)">
            <path id="Path_2-2" data-name="Path 2" d="M10.8,0a7.378,7.378,0,0,1-.189,1.185A9.618,9.618,0,0,1,5.564,7.349,13.863,13.863,0,0,1,0,8.812L.071.019Z" fill="none" stroke="#1a1818" stroke-miterlimit="10" stroke-width="1"/>
          </g>
        </g>
        <g id="Group_25" data-name="Group 25" transform="translate(4565.5 -613.355) rotate(90)">
          <path id="Path_28-3" data-name="Path 28" d="M10.238,8.855a7.829,7.829,0,0,0-.179-1.19A9.623,9.623,0,0,0,5.275,1.47,12.555,12.555,0,0,0,0,0L.067,8.837Z" transform="translate(0.105 21.144) rotate(-90)" fill="none" stroke="#1a1818" stroke-miterlimit="10" stroke-width="1"/>
          <g id="Group_7-3" data-name="Group 7" transform="translate(8.812) rotate(90)">
            <path id="Path_2-3" data-name="Path 2" d="M10.8,0a7.378,7.378,0,0,1-.189,1.185A9.618,9.618,0,0,1,5.564,7.349,13.863,13.863,0,0,1,0,8.812L.071.019Z" fill="none" stroke="#1a1818" stroke-miterlimit="10" stroke-width="1"/>
          </g>
        </g>
        <g id="Group_26" data-name="Group 26" transform="translate(4539.223 -624.226) rotate(-179.026)">
          <path id="Path_28-4" data-name="Path 28" d="M10.238,8.855a7.829,7.829,0,0,0-.179-1.19A9.623,9.623,0,0,0,5.275,1.47,12.555,12.555,0,0,0,0,0L.067,8.837Z" transform="translate(0.105 21.144) rotate(-90)" fill="none" stroke="#1a1818" stroke-miterlimit="10" stroke-width="1"/>
          <g id="Group_7-4" data-name="Group 7" transform="translate(8.812) rotate(90)">
            <path id="Path_2-4" data-name="Path 2" d="M10.8,0a7.378,7.378,0,0,1-.189,1.185A9.618,9.618,0,0,1,5.564,7.349,13.863,13.863,0,0,1,0,8.812L.071.019Z" fill="none" stroke="#1a1818" stroke-miterlimit="10" stroke-width="1"/>
          </g>
        </g>
        <g id="Group_27" data-name="Group 27" transform="translate(4569.447 -645.447)">
          <path id="Path_28-5" data-name="Path 28" d="M10.238,8.855a7.829,7.829,0,0,0-.179-1.19A9.623,9.623,0,0,0,5.275,1.47,12.555,12.555,0,0,0,0,0L.067,8.837Z" transform="translate(0.105 21.144) rotate(-90)" fill="none" stroke="#1a1818" stroke-miterlimit="10" stroke-width="1"/>
          <g id="Group_7-5" data-name="Group 7" transform="translate(8.812) rotate(90)">
            <path id="Path_2-5" data-name="Path 2" d="M10.8,0a7.378,7.378,0,0,1-.189,1.185A9.618,9.618,0,0,1,5.564,7.349,13.863,13.863,0,0,1,0,8.812L.071.019Z" fill="none" stroke="#1a1818" stroke-miterlimit="10" stroke-width="1"/>
          </g>
        </g>
        <g id="Group_28" data-name="Group 28" transform="translate(5669.557 -625.226) rotate(-179.026)">
          <path id="Path_28-6" data-name="Path 28" d="M10.238,8.855a7.829,7.829,0,0,0-.179-1.19A9.623,9.623,0,0,0,5.275,1.47,12.555,12.555,0,0,0,0,0L.067,8.837Z" transform="translate(0.105 21.144) rotate(-90)" fill="none" stroke="#1a1818" stroke-miterlimit="10" stroke-width="1"/>
          <g id="Group_7-6" data-name="Group 7" transform="translate(8.812) rotate(90)">
            <path id="Path_2-6" data-name="Path 2" d="M10.8,0a7.378,7.378,0,0,1-.189,1.185A9.618,9.618,0,0,1,5.564,7.349,13.863,13.863,0,0,1,0,8.812L.071.019Z" fill="none" stroke="#1a1818" stroke-miterlimit="10" stroke-width="1"/>
          </g>
        </g>
        <g id="Group_29" data-name="Group 29" transform="translate(5698.833 -614.355) rotate(90)">
          <path id="Path_28-7" data-name="Path 28" d="M10.238,8.855a7.829,7.829,0,0,0-.179-1.19A9.623,9.623,0,0,0,5.275,1.47,12.555,12.555,0,0,0,0,0L.067,8.837Z" transform="translate(0.105 21.144) rotate(-90)" fill="none" stroke="#1a1818" stroke-miterlimit="10" stroke-width="1"/>
          <g id="Group_7-7" data-name="Group 7" transform="translate(8.812) rotate(90)">
            <path id="Path_2-7" data-name="Path 2" d="M10.8,0a7.378,7.378,0,0,1-.189,1.185A9.618,9.618,0,0,1,5.564,7.349,13.863,13.863,0,0,1,0,8.812L.071.019Z" fill="none" stroke="#1a1818" stroke-miterlimit="10" stroke-width="1"/>
          </g>
        </g>
        <path id="Path_43" data-name="Path 43" d="M4530.67-301.333h80.667v18H4530.67Z" transform="translate(0 54.039)" fill="none" stroke="#000" stroke-width="1"/>
        <path id="Path_44" data-name="Path 44" d="M5516.67-300.667h-83.333v18h83.333Z" transform="translate(202.333 54.039)" fill="none" stroke="#000" stroke-width="1"/>
        <path id="Path_45" data-name="Path 45" d="M4599.75-299.333h11.583v17.917H4599.75Z" transform="translate(0 52.039)" fill="none" stroke="#000" stroke-width="1"/>
        <path id="Path_46" data-name="Path 46" d="M4599.75-299.333h11.583v17.917H4599.75Z" transform="translate(-12 52.039)" fill="none" stroke="#000" stroke-width="1"/>
        <path id="Path_47" data-name="Path 47" d="M4599.75-299.333h11.583v17.917H4599.75Z" transform="translate(1035.917 53.1)" fill="none" stroke="#000" stroke-width="1"/>
        <path id="Path_48" data-name="Path 48" d="M4599.75-299.333h11.583v17.917H4599.75Z" transform="translate(1047.917 53.1)" fill="none" stroke="#000" stroke-width="1"/>
        <g id="Rectangle_6" data-name="Rectangle 6" transform="translate(4519 -434.959)" stroke="#000" stroke-width="1">
          <rect width="23" height="15" stroke="none"/>
          <rect x="0.5" y="0.5" width="22" height="14" fill="none"/>
        </g>
        <g id="Rectangle_7" data-name="Rectangle 7" transform="translate(4524 -665)" stroke="#000" stroke-width="1">
          <rect width="14" height="11" stroke="none"/>
          <rect x="0.5" y="0.5" width="13" height="10" fill="none"/>
        </g>
        <g id="Rectangle_8" data-name="Rectangle 8" transform="translate(4680 -661)" stroke="#000" stroke-width="1">
          <rect width="17" height="14" stroke="none"/>
          <rect x="0.5" y="0.5" width="16" height="13" fill="none"/>
        </g>
        <g id="Rectangle_9" data-name="Rectangle 9" transform="translate(4924.769 -661)" stroke="#000" stroke-width="1">
          <rect width="17" height="14" stroke="none"/>
          <rect x="0.5" y="0.5" width="16" height="13" fill="none"/>
        </g>
        <g id="Rectangle_10" data-name="Rectangle 10" transform="translate(5141.145 -661)" stroke="#000" stroke-width="1">
          <rect width="17" height="14" stroke="none"/>
          <rect x="0.5" y="0.5" width="16" height="13" fill="none"/>
        </g>
        <g id="Rectangle_11" data-name="Rectangle 11" transform="translate(5355.426 -661)" stroke="#000" stroke-width="1">
          <rect width="17" height="14" stroke="none"/>
          <rect x="0.5" y="0.5" width="16" height="13" fill="none"/>
        </g>
        <g id="Rectangle_12" data-name="Rectangle 12" transform="translate(5629.333 -661)" stroke="#000" stroke-width="1">
          <rect width="17" height="14" stroke="none"/>
          <rect x="0.5" y="0.5" width="16" height="13" fill="none"/>
        </g>
        <g id="Group_32" data-name="Group 32" transform="translate(5681.689 -219.355) rotate(-90)">
          <path id="Path_28-8" data-name="Path 28" d="M10.238,8.855a7.829,7.829,0,0,0-.179-1.19A9.623,9.623,0,0,0,5.275,1.47,12.555,12.555,0,0,0,0,0L.067,8.837Z" transform="translate(0.105 21.144) rotate(-90)" fill="none" stroke="#1a1818" stroke-miterlimit="10" stroke-width="1"/>
          <g id="Group_7-8" data-name="Group 7" transform="translate(8.812) rotate(90)">
            <path id="Path_2-8" data-name="Path 2" d="M10.8,0a7.378,7.378,0,0,1-.189,1.185A9.618,9.618,0,0,1,5.564,7.349,13.863,13.863,0,0,1,0,8.812L.071.019Z" fill="none" stroke="#1a1818" stroke-miterlimit="10" stroke-width="1"/>
          </g>
        </g>
      </g>
    </g>
  </g>
</svg>
