<svg xmlns="http://www.w3.org/2000/svg" width="725" height="410.032" viewBox="0 0 725 410.032">
  <g id="Group_8" data-name="Group 8" transform="translate(669 722.5)">
    <g id="Group_7" data-name="Group 7">
      <g id="Group_6" data-name="Group 6">
        <path id="Path_7" data-name="Path 7" d="M44.258,2.516a19.855,19.855,0,0,1-.271,2.351c-.292,1.663-1.668,8.212-7.248,12.231A15.772,15.772,0,0,1,28.747,20l.1-17.448Z" transform="translate(-669 -724)" fill="none" stroke="#1a1818" stroke-miterlimit="10" stroke-width="1"/>
        <path id="Path_10" data-name="Path 10" d="M22,15.513H0v14H22Z" transform="translate(-669 -737)"/>
        <g id="Group_5" data-name="Group 5">
          <path id="Path_3" data-name="Path 3" d="M55.771,395.515a15.188,15.188,0,0,1-.28,2.082A16.878,16.878,0,0,1,48,408.43,18.062,18.062,0,0,1,39.747,411l.105-15.452Z" transform="translate(-655 -725)" fill="none" stroke="#1a1818" stroke-miterlimit="10" stroke-width="1"/>
          <path id="Path_4" data-name="Path 4" d="M55.771,395.513a15.953,15.953,0,0,0,.266,2.082,16.983,16.983,0,0,0,7.115,10.832A16.559,16.559,0,0,0,71,411l-.1-15.453Z" transform="translate(-654 -725)" fill="none" stroke="#1a1818" stroke-miterlimit="10" stroke-width="1"/>
          <path id="Path_5" data-name="Path 5" d="M703.771,395.515a15.2,15.2,0,0,1-.28,2.082A16.878,16.878,0,0,1,696,408.43a18.062,18.062,0,0,1-8.256,2.57l.1-15.452Z" transform="translate(-669 -724)" fill="none" stroke="#1a1818" stroke-miterlimit="10" stroke-width="1"/>
          <path id="Path_6" data-name="Path 6" d="M703.771,395.513a15.872,15.872,0,0,0,.267,2.082,16.978,16.978,0,0,0,7.115,10.832A16.556,16.556,0,0,0,719,411l-.1-15.453Z" transform="translate(-669 -724)" fill="none" stroke="#1a1818" stroke-miterlimit="10" stroke-width="1"/>
          <path id="Path_8" data-name="Path 8" d="M44.258,2.513a20.855,20.855,0,0,0,.258,2.351c.278,1.663,1.585,8.21,6.887,12.231A14.521,14.521,0,0,0,59,20L58.9,2.549Z" transform="translate(-669 -724)" fill="none" stroke="#1a1818" stroke-miterlimit="10" stroke-width="1"/>
          <path id="Path_9" data-name="Path 9" d="M22.333,236H65.315L65.5,395.583H22.426Z" transform="translate(-643.333 -725)" fill="none" stroke="#000" stroke-width="1"/>
          <path id="Path_12" data-name="Path 12" d="M725,376H607v19" transform="translate(-669 -724)" fill="none" stroke="#000" stroke-width="1"/>
          <path id="Path_13" data-name="Path 13" d="M607,376h20v19H607Z" transform="translate(-669 -724)" fill="none" stroke="#000" stroke-width="1"/>
          <path id="Path_14" data-name="Path 14" d="M627,376h20v19H627Z" transform="translate(-669 -724)" fill="none" stroke="#000" stroke-width="1"/>
          <g id="Group_4" data-name="Group 4">
            <path id="Path_15" data-name="Path 15" d="M11,76.5V2H724V395L48,394V208.5H92V141" transform="translate(-669 -724)" fill="none" stroke="#000" stroke-width="1"/>
            <line id="Line_1" data-name="Line 1" x2="5" transform="translate(-658 -646.5)" fill="none" stroke="#ffbf1a" stroke-width="1"/>
            <line id="Line_2" data-name="Line 2" x2="5" transform="translate(-651 -646.5)" fill="none" stroke="#ffbf1a" stroke-width="1"/>
            <line id="Line_3" data-name="Line 3" x2="5" transform="translate(-643 -646.5)" fill="none" stroke="#ffbf1a" stroke-width="1"/>
            <line id="Line_4" data-name="Line 4" x2="5" transform="translate(-636 -646.5)" fill="none" stroke="#ffbf1a" stroke-width="1"/>
            <line id="Line_5" data-name="Line 5" x2="5" transform="translate(-628 -646.5)" fill="none" stroke="#ffbf1a" stroke-width="1"/>
            <line id="Line_6" data-name="Line 6" x2="5" transform="translate(-620 -646.5)" fill="none" stroke="#ffbf1a" stroke-width="1"/>
            <line id="Line_7" data-name="Line 7" x2="5" transform="translate(-612 -646.5)" fill="none" stroke="#ffbf1a" stroke-width="1"/>
            <line id="Line_8" data-name="Line 8" x2="5" transform="translate(-604 -646.5)" fill="none" stroke="#ffbf1a" stroke-width="1"/>
            <line id="Line_9" data-name="Line 9" x2="5" transform="translate(-596 -646.5)" fill="none" stroke="#ffbf1a" stroke-width="1"/>
            <line id="Line_10" data-name="Line 10" x2="5" transform="translate(-589 -646.5)" fill="none" stroke="#ffbf1a" stroke-width="1"/>
            <line id="Line_11" data-name="Line 11" x2="5" transform="translate(-582 -646.5)" fill="none" stroke="#ffbf1a" stroke-width="1"/>
          </g>
          <line id="Line_12" data-name="Line 12" y1="5" transform="translate(-577 -644.5)" fill="none" stroke="#ffbf1a" stroke-width="1"/>
          <line id="Line_13" data-name="Line 13" y1="5" transform="translate(-577 -636.5)" fill="none" stroke="#ffbf1a" stroke-width="1"/>
          <line id="Line_14" data-name="Line 14" y1="5" transform="translate(-577 -629.5)" fill="none" stroke="#ffbf1a" stroke-width="1"/>
          <line id="Line_15" data-name="Line 15" y1="5" transform="translate(-577 -621.5)" fill="none" stroke="#ffbf1a" stroke-width="1"/>
          <line id="Line_16" data-name="Line 16" y1="5" transform="translate(-577 -613.5)" fill="none" stroke="#ffbf1a" stroke-width="1"/>
          <line id="Line_17" data-name="Line 17" y1="5" transform="translate(-577 -605.5)" fill="none" stroke="#ffbf1a" stroke-width="1"/>
          <line id="Line_18" data-name="Line 18" y1="5" transform="translate(-577 -597.5)" fill="none" stroke="#ffbf1a" stroke-width="1"/>
          <line id="Line_19" data-name="Line 19" y1="5" transform="translate(-577 -590.5)" fill="none" stroke="#ffbf1a" stroke-width="1"/>
        </g>
        <path id="Path_16" data-name="Path 16" d="M8,15.513H0v14H8Z" transform="translate(48 -737)"/>
      </g>
    </g>
  </g>
</svg>
