<svg width="23" height="11" viewBox="0 0 23 11" fill="none" xmlns="http://www.w3.org/2000/svg">
<path d="M11.3282 10.07C11.2951 9.66965 11.2312 9.27244 11.1371 8.88188C10.805 7.57503 10.2019 6.35256 9.36704 5.29374C8.53214 4.23492 7.48403 3.36338 6.29068 2.73562C4.65318 1.87999 2.84702 1.39631 1.00107 1.31909L1.15751 10.155L11.3282 10.07Z" stroke="#1A1818" stroke-width="0.5" stroke-miterlimit="10"/>
<path d="M11.434 10.0508C11.4608 9.64615 11.5199 9.24424 11.6109 8.84899C11.9441 7.50307 12.5611 6.24389 13.4205 5.15585C14.28 4.0678 15.3621 3.17601 16.5943 2.54023C18.3138 1.63951 20.2052 1.1145 22.143 0.999986L22.1623 9.92325L11.434 10.0508Z" stroke="#1A1818" stroke-width="0.5" stroke-miterlimit="10"/>
</svg>
