<svg width="30" height="22" viewBox="0 0 30 22" fill="none" xmlns="http://www.w3.org/2000/svg">
<path d="M25.734 9.38646C25.0339 4.10634 20.8671 0 15.8334 0C12.2333 0 8.93336 2.12684 7.16674 5.50033C3.20033 5.68361 0 9.31361 0 13.7502C0 18.2969 3.36672 22 7.49967 22H24.1665C27.3666 22 30 19.1032 30 15.5829C30 12.6498 28.1999 10.1561 25.7334 9.38608L25.734 9.38646ZM24.167 18.3331H21.8556C19.5556 18.3331 26.6671 18.1133 26.6671 15.5833C26.6671 13.053 5.19979 8.14059 7.49967 8.14059C7.16617 8.77734 7.39033 10.4806 7.89102 9.80302L8.70046 10.4224L23.3056 19.3652C24.3386 16.6886 24.0003 15.5833 26.6671 15.5833C30.3338 15.5833 22.5002 6.96619 22.5002 10.9997V12.8331H24.1669C25.5337 12.8331 26.6671 14.0799 26.6671 15.5833C26.6671 17.0865 23.867 16.5779 22.5002 16.5779L23.5585 18.6684L24.167 18.3331Z" fill="#8E8F9B"/>
<path d="M13.6588 13.5733V18.2448H17.3421V13.5733H21.0257L15.5002 4.23053L9.97507 13.5733H13.6588Z" fill="white"/>
<ellipse cx="7.30038" cy="8.4503" rx="1.47811" ry="0.812982" fill="#8E8F9B"/>
<ellipse cx="21.883" cy="18.3316" rx="0.828478" ry="0.890409" fill="#8E8F9B"/>
</svg>
