<svg width="1191" height="451" viewBox="0 0 1191 451" fill="none" xmlns="http://www.w3.org/2000/svg">
<path d="M32.7983 437.02C32.8368 437.557 32.916 438.089 33.0353 438.614C33.4576 440.368 34.2398 442.014 35.3312 443.443C36.4225 444.872 37.7987 446.054 39.3705 446.91C41.5274 448.078 43.9126 448.751 46.356 448.879L46.2672 437.044L32.7983 437.02Z" stroke="#1A1818" stroke-miterlimit="10"/>
<path d="M32.6579 437.219C32.6172 437.754 32.5335 438.284 32.4076 438.806C31.9414 440.585 31.1036 442.242 29.9507 443.666C28.7978 445.09 27.3566 446.247 25.7241 447.061C23.4305 448.228 20.9205 448.895 18.356 449.02L18.45 437.244L32.6579 437.219Z" stroke="#1A1818" stroke-miterlimit="10"/>
<path d="M2 436.879V69.2836H1131.37H1190V437.567L2 436.879Z" stroke="black"/>
<path d="M2 68.1642L1 69.2836" stroke="black"/>
<path d="M32.123 69.3184C32.0834 68.7663 32.0017 68.218 31.8788 67.6784C31.4438 65.8728 30.6381 64.1798 29.5139 62.709C28.3896 61.2382 26.972 60.0225 25.3529 59.1408C23.1311 57.9388 20.6741 57.247 18.1572 57.1149L18.2486 69.2936L32.123 69.3184Z" stroke="#1A1818" stroke-miterlimit="10"/>
<path d="M32.2676 69.1143C32.3095 68.5637 32.3957 68.0175 32.5254 67.4811C33.0057 65.6505 33.8687 63.945 35.0563 62.4796C36.2438 61.0143 37.7285 59.8231 39.4101 58.9862C41.7727 57.7853 44.3583 57.0984 47 56.9699L46.9031 69.0881L32.2676 69.1143Z" stroke="#1A1818" stroke-miterlimit="10"/>
<path d="M58.5529 35.5163C58.0116 35.5548 57.474 35.634 56.9451 35.7534C55.1749 36.1756 53.515 36.9578 52.0731 38.0492C50.6311 39.1406 49.4393 40.5168 48.5748 42.0886C47.3964 44.2454 46.7182 46.6306 46.5886 49.074L58.5286 48.9853L58.5529 35.5163Z" stroke="#1A1818" stroke-miterlimit="10"/>
<path d="M58.3528 35.3759C57.813 35.3352 57.2776 35.2515 56.7517 35.1256C54.9569 34.6593 53.2849 33.8216 51.8483 32.6687C50.4116 31.5158 49.2438 30.0746 48.4233 28.4421C47.2459 26.1485 46.5725 23.6385 46.4466 21.074L58.3271 21.168L58.3528 35.3759Z" stroke="#1A1818" stroke-miterlimit="10"/>
<path d="M1131.81 34.0883C1132.35 34.0588 1132.88 33.9885 1133.41 33.8779C1135.17 33.4849 1136.83 32.7302 1138.27 31.6628C1139.72 30.5954 1140.93 29.2391 1141.81 27.6818C1143.02 25.5447 1143.73 23.1711 1143.9 20.7302L1132.07 20.6218L1131.81 34.0883Z" stroke="#1A1818" stroke-miterlimit="10"/>
<path d="M1132 34.2318C1132.54 34.2814 1133.07 34.3739 1133.59 34.5085C1135.36 35.0043 1137 35.8695 1138.4 37.046C1139.81 38.2224 1140.94 39.6827 1141.73 41.3285C1142.85 43.6412 1143.48 46.162 1143.56 48.7282L1131.78 48.438L1132 34.2318Z" stroke="#1A1818" stroke-miterlimit="10"/>
<path d="M1157.39 69.0251C1157.35 68.4885 1157.27 67.9557 1157.15 67.4314C1156.73 65.6767 1155.95 64.0314 1154.86 62.602C1153.77 61.1727 1152.39 59.9913 1150.82 59.1344C1148.66 57.9663 1146.28 57.2941 1143.83 57.1656L1143.92 69.001L1157.39 69.0251Z" stroke="#1A1818" stroke-miterlimit="10"/>
<path d="M1157.53 68.8269C1157.57 68.2919 1157.66 67.7611 1157.78 67.2398C1158.25 65.4608 1159.09 63.8034 1160.24 62.3794C1161.39 60.9553 1162.83 59.7977 1164.46 58.9844C1166.76 57.8174 1169.27 57.1499 1171.83 57.025L1171.74 68.8015L1157.53 68.8269Z" stroke="#1A1818" stroke-miterlimit="10"/>
<path d="M2 419H102V437H2V419Z" stroke="black"/>
<path d="M1190 420H1102V438H1190V420Z" stroke="black"/>
<path d="M86 419H102V437H86V419Z" stroke="black"/>
<path d="M70 419H86V437H70V419Z" stroke="black"/>
<path d="M1116 420H1130V438H1116V420Z" stroke="black"/>
<path d="M1102 420H1116V438H1102V420Z" stroke="black"/>
<path d="M1168.13 438C1168.17 438.537 1168.25 439.069 1168.37 439.594C1168.79 441.349 1169.57 442.994 1170.66 444.423C1171.76 445.853 1173.13 447.034 1174.7 447.891C1176.86 449.059 1179.25 449.731 1181.69 449.86L1181.6 438.024L1168.13 438Z" stroke="#1A1818" stroke-miterlimit="10"/>
<path d="M1167.99 438.198C1167.95 438.733 1167.87 439.264 1167.74 439.785C1167.27 441.564 1166.44 443.222 1165.28 444.646C1164.13 446.07 1162.69 447.227 1161.06 448.041C1158.76 449.208 1156.25 449.875 1153.69 450L1153.78 438.223L1167.99 438.198Z" stroke="#1A1818" stroke-miterlimit="10"/>
<path d="M59 1V69.2836H1132V1H59Z" stroke="black"/>
</svg>
